<svg xmlns="http://www.w3.org/2000/svg" viewBox="0 0 64 80" x="0px" y="0px"><title>observatory-science-planetarium-astronomy-telescope-space-galaxy</title><g data-name="10-observatory"><path d="M52,28a1,1,0,0,0,.758.97l4,1a1,1,0,0,0,1.232-.828,100,100,0,0,0,0-28.284A1,1,0,0,0,56.758.03l-4,1A1,1,0,0,0,52,2v.279L43.684,5.051A1,1,0,0,0,43,6v.219l-3.242.811A1,1,0,0,0,39,8H37.405c-.124-.743-.265-1.483-.428-2.217a1,1,0,0,0-1.141-.769l-6,1A1,1,0,0,0,29,7V7.1l-3,.3V6h1a1,1,0,0,0,.895-.553l2-4A1,1,0,0,0,29,0H19a1,1,0,0,0-1,1V5a1,1,0,0,0,1,1h2V7.9l-1.1.11A1,1,0,0,0,19,9v.219L15.877,10H10c-.007,0-.012,0-.019,0a.983.983,0,0,0-.337.068.777.777,0,0,0-.082.04,1.045,1.045,0,0,0-.117.056l-3,2A1,1,0,0,0,6,13v4a1,1,0,0,0,.445.832l3,2a.9.9,0,0,0,.109.051.9.9,0,0,0,.1.047A.99.99,0,0,0,10,20h5.877L19,20.781V21a.988.988,0,0,0,.438.809A4.493,4.493,0,0,0,17.5,25.5a4.448,4.448,0,0,0,.908,2.686A8.944,8.944,0,0,0,17.059,32H11a1,1,0,0,0-1,1v3c0,.009.005.017.005.027a.987.987,0,0,0,.047.289l1,3A1,1,0,0,0,12,40h.82L9.014,62.835A1,1,0,0,0,10,64h4a1,1,0,0,0,.986-.835L15.014,63H36.986l.028.165A1,1,0,0,0,38,64h4a1,1,0,0,0,.986-1.165L39.18,40H40a1,1,0,0,0,.948-.684l1-3A.987.987,0,0,0,42,36.027c0-.01.005-.018.005-.027V33a1,1,0,0,0-1-1H34.941a9.007,9.007,0,0,0-8.7-7.988,4.455,4.455,0,0,0-.875-1.47L29,22.905V23a1,1,0,0,0,.836.986l6,1A.927.927,0,0,0,36,25a1,1,0,0,0,.976-.783c.163-.734.3-1.474.428-2.217H39a1,1,0,0,0,.758.97L43,23.781V24a1,1,0,0,0,.684.949L52,27.721ZM26.382,4H23V2h4.382ZM20,2h1V4H20Zm3,4h1V7.6l-1,.1ZM21,9.9l8.254-.825a24.451,24.451,0,0,1,0,11.84L21,20.1V9.9ZM8,13.535l1-.666v4.262l-1-.666ZM11,12h4v6H11Zm6,6.219V11.781l2-.5v7.438Zm8,7.861v3.062a3.974,3.974,0,0,0-1.15.5l-2.488-1.866A6.957,6.957,0,0,1,25,26.08ZM26,31a1.993,1.993,0,0,1,1.722,1H24.278A1.993,1.993,0,0,1,26,31Zm2.15-1.362a3.974,3.974,0,0,0-1.15-.5V26.08a6.957,6.957,0,0,1,3.638,1.692Zm-8.412-3.089A2.468,2.468,0,0,1,19.5,25.5a2.494,2.494,0,0,1,4.625-1.3A8.99,8.99,0,0,0,19.738,26.549Zm.33,2.752,2.424,1.817a4,4,0,0,0-.35.882H19.08A6.941,6.941,0,0,1,20.068,29.3ZM11.181,62l3.666-22h1.972L14.007,56.88l-.826,4.955h0L13.153,62Zm25.471-1H33.878l-1.191-9.129-1.983.258L31.861,61H27V57H25v4H20.139l1.939-14.871L20.1,45.871,18.122,61H15.348l2.041-12.25L18.847,40h2.015l-.375,2.871,1.983.258L22.878,40H25V55h2V40h2.122l1.191,9.129,1.983-.258L31.139,40h2.014l1.458,8.75Zm4.167,1H38.847l-.028-.164h0l-.826-4.955L35.181,40h1.972Zm-1.54-24H12.721l-.333-1H39.612ZM40,35H12V34H40ZM29.858,32a4,4,0,0,0-.35-.882L31.932,29.3A6.941,6.941,0,0,1,32.92,32Zm5.36-9.144L31,22.153v-.031A26.46,26.46,0,0,0,31,7.878V7.847l4.218-.7A40.8,40.8,0,0,1,35.218,22.856ZM56.161,2.241a98.014,98.014,0,0,1,0,25.518L54,27.219v-.148A73.81,73.81,0,0,0,54,2.929V2.781ZM37.681,20a42.881,42.881,0,0,0,0-10H39V20ZM41,21V8.781l2.257-.565a32.091,32.091,0,0,1,0,13.568L41,21.219Zm4,2.1A34.082,34.082,0,0,0,45,6.9V6.721l7.2-2.4a71.773,71.773,0,0,1,0,21.356l-7.2-2.4Z"/><path d="M62.25,37.612l-1.472-1.548.442-2.09a1,1,0,0,0-1.41-1.109l-1.927.921-1.852-1.065a1,1,0,0,0-1.49,1l.28,2.118-1.585,1.432a1,1,0,0,0,.489,1.725l2.1.388.871,1.95a1,1,0,0,0,.875.591h.038a1,1,0,0,0,.879-.524l1.019-1.878,2.124-.227a1,1,0,0,0,.618-1.683Zm-3.478-.023a1,1,0,0,0-.772.518l-.3.559-.258-.581a1,1,0,0,0-.732-.575L56.08,37.4l.472-.426a1,1,0,0,0,.321-.874l-.083-.631.551.318a1,1,0,0,0,.93.035l.574-.274-.132.623a1,1,0,0,0,.254.9l.437.461Z"/><path d="M55.962,55.126l.8-2.9a1,1,0,0,0-1.338-1.194l-2.791,1.126L50.126,50.5a1,1,0,0,0-1.55.9l.209,3L46.43,56.277a1,1,0,0,0,.381,1.753l2.919.729,1.055,2.819a1,1,0,0,0,.836.645.854.854,0,0,0,.1.005,1,1,0,0,0,.847-.47l1.6-2.551,3.007-.132a1,1,0,0,0,.723-1.642Zm-2.409,2.105a1,1,0,0,0-.8.469l-.8,1.279-.528-1.413a1,1,0,0,0-.694-.62l-1.465-.365,1.181-.94a1,1,0,0,0,.375-.852l-.1-1.506,1.26.833a1,1,0,0,0,.925.093l1.4-.564-.4,1.454a1,1,0,0,0,.2.91l.97,1.157Z"/><path d="M10.479,28.127a1,1,0,0,0-.095-1.051L9.171,25.467l.637-1.912a1,1,0,0,0-1.276-1.261l-1.9.658-1.622-1.2a1,1,0,0,0-1.594.823l.036,2.015L1.81,25.764a1,1,0,0,0,.29,1.77l1.927.589.609,1.92a1,1,0,0,0,.8.687.961.961,0,0,0,.151.012,1,1,0,0,0,.819-.427l1.155-1.652,2.015.015A1,1,0,0,0,10.479,28.127ZM7.053,26.659a.976.976,0,0,0-.827.427l-.295.422-.156-.49a1,1,0,0,0-.661-.655l-.493-.151.419-.3a1,1,0,0,0,.418-.831l-.01-.515.415.306a1,1,0,0,0,.92.141l.487-.168-.164.488a1,1,0,0,0,.152.918l.309.411Z"/></g><text x="0" y="79" fill="#000000" font-size="5px" font-weight="bold" font-family="'Helvetica Neue', Helvetica, Arial-Unicode, Arial, Sans-serif">Created by VINZENCE STUDIO</text><text x="0" y="84" fill="#000000" font-size="5px" font-weight="bold" font-family="'Helvetica Neue', Helvetica, Arial-Unicode, Arial, Sans-serif">from the Noun Project</text></svg>